<svg xmlns="http://www.w3.org/2000/svg" viewBox="0 0 465.77 84.54"><defs><style>.a,.c{fill:#e50012;}.b{fill:#231815;}.c{fill-rule:evenodd;}</style></defs><title>资源 1</title><polygon class="a" points="6.86 31.45 11.11 33.68 10.3 28.96 13.73 25.61 8.99 24.92 6.86 20.62 4.75 24.92 0 25.61 3.43 28.96 2.62 33.68 6.86 31.45"/><path class="a" d="M38.48,2.93A5.2,5.2,0,0,0,33,0C31.81.2,28.7.52,28.7.52s5.66,29.39,4.05,39.22a15.44,15.44,0,0,1-.49,2.11c-.21.71-.47,1.41-1.07,3A276.36,276.36,0,0,1,17.73,74.2c-4.39-14.36-6.81-36.74-6.81-36.74H3.11S3.9,82.19,9.76,84.51c1.62,0,3.84,0,6.24,0s4.13,0,6.57,0c5.43-1,22-35.2,24.08-42.92C49.46,32.66,41.64,9.6,38.48,2.93Z"/><path class="b" d="M91.4,53.06H86.81l1-4.77a1.31,1.31,0,0,1,1.37-1.12h3.23a1.11,1.11,0,0,1,.9.37,1.16,1.16,0,0,1,.18,1l-.7,3.43a1.3,1.3,0,0,1-1.36,1.13Z"/><path class="b" d="M50.11,76.07H45.5L49.36,57.7a1.31,1.31,0,0,1,1.36-1.12H54a1.11,1.11,0,0,1,.89.36,1.13,1.13,0,0,1,.18,1l-3.55,17a1.32,1.32,0,0,1-1.37,1.12Z"/><path class="b" d="M54.85,53.08H50.26l1-4.77a1.3,1.3,0,0,1,1.36-1.12h3.23a1.09,1.09,0,0,1,.9.37,1.13,1.13,0,0,1,.18,1L56.2,52a1.3,1.3,0,0,1-1.36,1.13Z"/><path class="b" d="M70.59,84.46H43.51l.66-3.23a1.31,1.31,0,0,1,1.41-1.07H69.89a2.87,2.87,0,0,0,1.71-.72,3,3,0,0,0,.88-1.8l.58-2.8a2.14,2.14,0,0,0-.22-1.59,2.09,2.09,0,0,0-1.69-.6H62a5.29,5.29,0,0,1-4.19-1.74,4.75,4.75,0,0,1-1-4.27l.88-4.29a7.15,7.15,0,0,1,2.6-4.29,7.5,7.5,0,0,1,4.8-1.5H82l-.69,3.2a1.3,1.3,0,0,1-1.4,1.07H66.2a3.46,3.46,0,0,0-1.89.56,3.11,3.11,0,0,0-1,1.61l-.7,3.44a1.77,1.77,0,0,0,.27,1.61,2,2,0,0,0,1.2.29h9.61a5.28,5.28,0,0,1,4.18,1.74,4.74,4.74,0,0,1,1,4.27L78,78.67a6.92,6.92,0,0,1-2.66,4.13,7.58,7.58,0,0,1-4.75,1.66Z"/><path class="b" d="M85,84.46h-4.6L85.9,57.7a1.3,1.3,0,0,1,1.36-1.12h3.23a1,1,0,0,1,1.08,1.33L86.36,83.33A1.3,1.3,0,0,1,85,84.46Z"/><path class="b" d="M107.71,84.46H96.17A5.28,5.28,0,0,1,92,82.72a4.73,4.73,0,0,1-1-4.27l3.3-16.09a6.86,6.86,0,0,1,2.49-4.22,7.89,7.89,0,0,1,4.91-1.57h11.55a5.29,5.29,0,0,1,4.19,1.74,4.73,4.73,0,0,1,1,4.27l-3.29,16.08a7,7,0,0,1-2.65,4.13,7.58,7.58,0,0,1-4.75,1.66Zm-5.11-23.6a2.59,2.59,0,0,0-1.85.71,4.28,4.28,0,0,0-1,1.8l-3.1,15.11a1.4,1.4,0,0,0,.16,1.2,1.58,1.58,0,0,0,1.34.49H107a3,3,0,0,0,1.45-.62,2.21,2.21,0,0,0,1-1.33l.08-.2,3.13-15.29a1.91,1.91,0,0,0-.35-1.4,1.44,1.44,0,0,0-1-.48Z"/><path class="b" d="M140.59,84.46H136l4.39-21.54a1.41,1.41,0,0,0-.22-1.46,1.55,1.55,0,0,0-1.33-.59h-8.32a3,3,0,0,0-2.35,1,4,4,0,0,0-.67,1.61l-4.06,19.82a1.3,1.3,0,0,1-1.36,1.13h-4.57l4.51-22.09A7.22,7.22,0,0,1,124.63,58a7.57,7.57,0,0,1,4.84-1.46H141a5.29,5.29,0,0,1,4.19,1.74,4.74,4.74,0,0,1,1,4.27L142,83.33a1.31,1.31,0,0,1-1.36,1.13Z"/><path class="b" d="M175.72,84.46H155.44l.66-3.23a1.3,1.3,0,0,1,1.41-1.07h17a3.23,3.23,0,0,0,2-.71,3.6,3.6,0,0,0,1.15-2L179.2,70a1.31,1.31,0,0,0-1.51-1.66h-12.5A5.26,5.26,0,0,1,161,66.63a4.74,4.74,0,0,1-1-4.27l1.78-9.41a7.41,7.41,0,0,1,2.56-4.37,7.65,7.65,0,0,1,4.84-1.42l19.71,0-.66,3.2a1.31,1.31,0,0,1-1.41,1.07h-16a3.67,3.67,0,0,0-2.55.89,5.41,5.41,0,0,0-1.07,2.2l-1.45,7.82a2,2,0,0,0,.09,1.17,1.78,1.78,0,0,0,1.42.55h12.49a5.29,5.29,0,0,1,4.19,1.74,4.74,4.74,0,0,1,1,4.27l-1.79,8.59a6.93,6.93,0,0,1-2.65,4.13,7.58,7.58,0,0,1-4.75,1.66Z"/><path class="b" d="M200.23,80.18h-6.41a1.89,1.89,0,0,1-1.12-.41,1.09,1.09,0,0,1-.22-.75,1.5,1.5,0,0,1,0-.28l2.76-13.41a1.09,1.09,0,0,0-.18-.91,1.11,1.11,0,0,0-.9-.37H191a1.31,1.31,0,0,0-1.36,1.12l-2.75,13.29a5.15,5.15,0,0,0,.05,2.47c0,.07,0,.12.07.19a4.44,4.44,0,0,0,.29.74,4.61,4.61,0,0,0,.6.87,4.73,4.73,0,0,0,.75.7,4,4,0,0,0,.55.33,3.06,3.06,0,0,0,.28.16,5.49,5.49,0,0,0,.83.3l.09,0a6.45,6.45,0,0,0,1.68.23h6.13a1.31,1.31,0,0,0,1.41-1.07l.39-1.93C200.09,81,200.23,80.18,200.23,80.18Z"/><path class="b" d="M221.64,77.78A2.94,2.94,0,0,1,219,80.17h-9.25a1.07,1.07,0,0,1-.83-.41,1.27,1.27,0,0,1-.25-1.06l1.63-7.55a3.34,3.34,0,0,1,1-1.85,3.16,3.16,0,0,1,2.13-.6h5.18a2.42,2.42,0,0,0,1.35-.27,1.35,1.35,0,0,0,.56-1l.68-3h-9a7.67,7.67,0,0,0-4.81,1.6,7.08,7.08,0,0,0-2.59,4.2L203,78.46a4.7,4.7,0,0,0,1,4.27,5.27,5.27,0,0,0,4.19,1.74h11.55a7.52,7.52,0,0,0,7.39-5.79l3.3-16.08a4.75,4.75,0,0,0-1-4.27,5.29,5.29,0,0,0-4.17-1.74H197.08v0l1.56-8a1,1,0,0,0-1.07-1.34h-3.23A1.32,1.32,0,0,0,193,48.36L190.46,60.8h33a1.75,1.75,0,0,1,1,.38,1.53,1.53,0,0,1,.36,1.18Z"/><path class="b" d="M234.15,84.54h-4.58l4.53-22.08a6.87,6.87,0,0,1,2.65-4.12,7.56,7.56,0,0,1,4.74-1.67H252.7l-.65,3.2a1.3,1.3,0,0,1-1.41,1.07h-7.9a3.71,3.71,0,0,0-2.35,1.11,5.22,5.22,0,0,0-.78,1.39l-4.1,20a1.3,1.3,0,0,1-1.36,1.13Z"/><path class="c" d="M292.81,84.5h4.47a23.23,23.23,0,0,0,4-.32A5.66,5.66,0,0,0,303.75,83,3.85,3.85,0,0,0,305,80.8l6.46-32c.09-.45-.27-1.13-1.54-1.13h-3L300.42,80a1.77,1.77,0,0,1-.57,1,2.38,2.38,0,0,1-1.08.5,7.27,7.27,0,0,1-1.49.13H291.6l-.35,1.79c-.12.55.45,1.15,1.55,1.1Z"/><path class="c" d="M298.63,47.62h3c.88,0,1.66.49,1.55,1.07l-5.95,29.16h-4.82Z"/><path class="c" d="M289.16,56c-.07.36-.49.62-.91.74a5.78,5.78,0,0,1-1.47.15h-17L271,51.36a1.09,1.09,0,0,1,.82-.73,5.54,5.54,0,0,1,1.48-.15h15a8,8,0,0,1,1,0,1.44,1.44,0,0,1,.7.24.54.54,0,0,1,.17.56l-1,4.71Zm3.72-8.22a22,22,0,0,0-3.11-.18H272.41a16.9,16.9,0,0,0-2.77.19,4.88,4.88,0,0,0-2.13.82,3.24,3.24,0,0,0-1.24,1.87l-6.86,34h4.81l4.93-24.61,18.12-.05a24.68,24.68,0,0,0,3.18-.2,5,5,0,0,0,2.17-.84,3,3,0,0,0,1.16-1.89l1.3-6.36a2,2,0,0,0-.37-1.89A3.22,3.22,0,0,0,292.88,47.81Z"/><path class="c" d="M283.15,74.42a5.52,5.52,0,0,1,1.5.15.6.6,0,0,1,.44.74L284,80.85a1,1,0,0,1-.78.74,6,6,0,0,1-1.52.16l-7.93-.12a5.65,5.65,0,0,1-1.47-.15.6.6,0,0,1-.47-.74l1.09-5.41a1,1,0,0,1,.77-.74,6.4,6.4,0,0,1,1.53-.14ZM290,65.17h-6.48l.83-4h-4.81l-.82,4h-8.66L269.51,68h8.65l-.73,3.57h-3q-1.17,0-2.19.09a7.55,7.55,0,0,0-1.83.39,3.63,3.63,0,0,0-1.37.88,3.25,3.25,0,0,0-.74,1.55l-1.46,7.1a2,2,0,0,0,.37,1.89,3.23,3.23,0,0,0,1.81.84,17.76,17.76,0,0,0,2.77.18h10.55a21.56,21.56,0,0,0,3,0,4.78,4.78,0,0,0,2.15-.84,3,3,0,0,0,1.14-1.89l1.51-7.23a2.29,2.29,0,0,0-.1-1.55,1.94,1.94,0,0,0-1-.88,5.7,5.7,0,0,0-1.69-.39c-.64-.06-1.39-.09-2.16-.09h-2.93L283,68h8.54l.3-1.5C292,65.64,291.54,65.17,290,65.17Z"/><path class="c" d="M391.36,47.7H388l-2.19,4-8.49,0-.51,2.85h7.44L381.91,59h-6.12l-.47,2.84h5.05l-5.45,10.21h21.63s.78,0,1,.39a1.43,1.43,0,0,1-.16,1.11l-3.65,8-21.73,0-.55,2.83h32.48l.32-1.55c.13-.63-.63-1.31-1.87-1.31h-3.73l4-8.88s.81-1.58.1-2.52a3.37,3.37,0,0,0-2.45-1h-19l3.88-7.31h22.63l.33-1.57c.12-.64-.44-1.29-1.89-1.29H386.67l2.4-4.44h20.25l.33-1.57c.11-.59-.5-1.3-1.88-1.3H390.56l1.34-2.26s.43-.74.3-1.1A1,1,0,0,0,391.36,47.7Z"/><path class="c" d="M361.36,58.9l1-5,9.11-5.95s.87-.54,1.5-.13.22,1.49.22,1.49l-6.6,34.91h-5l6-29.62Z"/><path class="c" d="M312.28,77.75h18l-.83,3.94-20.05,0-.67,2.83H355l.24-1.32c.19-1-.58-1.53-1.77-1.53l-19.27,0,.82-3.93,17.33,0,.31-1.34c.15-.82-.32-1.52-1.84-1.51l-15.2,0,.76-3.82,17.14,0,.27-1.25c.19-.82-.1-1.57-1.81-1.57l-15,0,.43-2c.18-1-.33-1.56-1.8-1.61h-2.69l-.74,3.61H319.74l1.07-2.15c.18-.28.29-1.14-1.25-1.13h-3l-3.1,6.11h18.1l-.77,3.83-18,0Z"/><path class="c" d="M351.27,54H323.93l.4-1.88a1.55,1.55,0,0,1,.62-1,3.09,3.09,0,0,1,1.19-.5,8.19,8.19,0,0,1,1.59-.15h21.19a7,7,0,0,1,1.48.15,2,2,0,0,1,1,.5,1,1,0,0,1,.23,1L351.27,54Zm-1,4.77a1.6,1.6,0,0,1-.64,1,3.15,3.15,0,0,1-1.22.49,8.09,8.09,0,0,1-1.55.14H325.7a7.4,7.4,0,0,1-1.53-.14,1.91,1.91,0,0,1-1-.49,1.06,1.06,0,0,1-.22-1l.4-1.9h27.33l-.39,1.9Zm3.81-10.82a14.46,14.46,0,0,0-3.2-.31h-24a16.15,16.15,0,0,0-3.34.31A6,6,0,0,0,321,49a3.69,3.69,0,0,0-1.33,2.22L318,59.54a2.54,2.54,0,0,0,.42,2.24,3.81,3.81,0,0,0,2.09,1.13,14.66,14.66,0,0,0,3.22.31h24a16.37,16.37,0,0,0,3.33-.31,6.31,6.31,0,0,0,2.58-1.13,3.75,3.75,0,0,0,1.34-2.24l1.71-8.28a2.46,2.46,0,0,0-.43-2.22A3.87,3.87,0,0,0,354.1,47.92Z"/><path class="c" d="M431.5,56.52a3.49,3.49,0,0,0-2.61-1.34h-4.18l3.1-5.72s.46-.8.31-1.19a1,1,0,0,0-.9-.67h-3.15L420,55.18h-5.68l-.56,2.76h4.76L412.78,68.6l6,5.33-5.7,10.44h5.26l4-7.3,5.67,5,1.93-3.54-5.68-5,7.41-13.62A2.93,2.93,0,0,0,431.5,56.52Zm-4.8,2.94-6,11-2.17-1.91a1.5,1.5,0,0,1-.4-.54,1.6,1.6,0,0,1,0-.71l5.05-9.32h2.61a1,1,0,0,1,.86.52A1.06,1.06,0,0,1,426.7,59.46Z"/><path class="c" d="M463.88,51.68h-3.44l.85-4.07h-4.67l-.85,4.08h-13l.85-4.08H439l-.85,4.09h-4.23l-.51,2.85h4.15l-1.93,9.26a2,2,0,0,0,.36,1.84,3.07,3.07,0,0,0,1.75.8,16.39,16.39,0,0,0,2.68.19h3.15l-.8,3.93h-12.3l-.5,2.79h4.93l-6,11h5.26l6-11h2l-2.25,11h4.69l2.25-11h1.79l3,11h5.06l-3.06-11h6.46l.32-1.52c.11-.57-.48-1.27-1.82-1.27h-11.2l.8-3.93H452a17.81,17.81,0,0,0,2.75-.19,4.93,4.93,0,0,0,2.1-.8,3,3,0,0,0,1.1-1.84l1.93-9.26h5.59l.32-1.57C465.87,52.39,465.26,51.68,463.88,51.68ZM453.41,63a.89.89,0,0,1-.39.55,2.1,2.1,0,0,1-.79.23,6.82,6.82,0,0,1-1,0h-8.85a7.64,7.64,0,0,1-1,0,1.39,1.39,0,0,1-.69-.23.52.52,0,0,1-.17-.55l.38-1.76a.88.88,0,0,1,.37-.5,2.08,2.08,0,0,1,.79-.23,6.86,6.86,0,0,1,1,0h8.85a7.58,7.58,0,0,1,1,0,1.41,1.41,0,0,1,.69.23.52.52,0,0,1,.17.55h0Zm1.25-6a.89.89,0,0,1-.39.55,2.11,2.11,0,0,1-.79.23,6.82,6.82,0,0,1-1,0h-8.85a7.64,7.64,0,0,1-1,0,1.39,1.39,0,0,1-.69-.23.52.52,0,0,1-.17-.55l.38-1.76a.88.88,0,0,1,.37-.5,2.08,2.08,0,0,1,.79-.23,6.84,6.84,0,0,1,1,0h8.85a7.56,7.56,0,0,1,1,0,1.41,1.41,0,0,1,.69.23.52.52,0,0,1,.17.55h0Z"/></svg>